<svg version="1.0" xmlns="http://www.w3.org/2000/svg"
 width="512.000000pt" height="512.000000pt" viewBox="0 0 512.000000 512.000000"
 preserveAspectRatio="xMidYMid meet">

<g transform="translate(0.000000,512.000000) scale(0.100000,-0.100000)"
fill="#000000" stroke="none">
<path d="M430 5110 c-216 -38 -388 -211 -420 -425 -7 -48 -10 -732 -8 -2170
l3 -2100 21 -55 c38 -100 66 -144 130 -207 75 -76 176 -127 279 -143 48 -7
732 -10 2170 -8 l2100 3 55 21 c100 38 144 66 207 130 76 75 127 176 143 279
7 48 10 732 8 2170 l-3 2100 -21 55 c-38 100 -66 144 -130 207 -73 74 -175
127 -274 143 -77 12 -4190 12 -4260 0z m2413 -950 c264 -22 438 -98 589 -258
108 -115 173 -242 214 -417 26 -111 27 -424 2 -537 -76 -340 -294 -572 -613
-652 -114 -29 -242 -36 -657 -36 l-418 0 0 -655 0 -655 -255 0 -255 0 0 1603
c0 882 3 1607 7 1610 10 11 1255 8 1386 -3z"/>
<path d="M1960 3215 l0 -486 453 3 c441 3 453 4 507 26 91 36 135 75 172 150
l33 67 0 240 c0 232 -1 242 -24 293 -33 74 -105 136 -189 164 -64 21 -85 22
-509 26 l-443 3 0 -486z"/>
</g>
</svg>
